HIERARCHY
ROOT Hips
{
    OFFSET   0.000000   0.000000   0.000000
    CHANNELS 6 Xposition Yposition Zposition Zrotation Xrotation Yrotation
    JOINT Chest
    {
        OFFSET   0.000000   8.007240   0.000000
        CHANNELS 3 Zrotation Xrotation Yrotation
        JOINT Chest2
        {
            OFFSET   0.000000  22.077100   0.000000
            CHANNELS 3 Zrotation Xrotation Yrotation
            JOINT Neck
            {
                OFFSET   0.000000  23.254800   0.000000
                CHANNELS 3 Zrotation Xrotation Yrotation
                JOINT Head
                {
                    OFFSET   0.000000  14.370000   1.956600
                    CHANNELS 3 Zrotation Xrotation Yrotation
                    End Site
                    {
                        OFFSET   0.000000  19.566000   0.000000
                    }
                }
            }
            JOINT LeftCollar
            {
                OFFSET   3.911900  19.017000  -0.467064
                CHANNELS 3 Zrotation Xrotation Yrotation
                JOINT LeftShoulder
                {
                    OFFSET  10.383700   0.000000   0.000000
                    CHANNELS 3 Zrotation Xrotation Yrotation
                    JOINT LeftElbow
                    {
                        OFFSET  26.662100   0.001476   0.000517
                        CHANNELS 3 Zrotation Xrotation Yrotation
                        JOINT LeftWrist
                        {
                            OFFSET  28.869000  -0.000025  -0.000106
                            CHANNELS 3 Zrotation Xrotation Yrotation
                            JOINT LeftFinger0
                            {
                                OFFSET   2.044660  -2.323460   3.252850
                                CHANNELS 3 Zrotation Xrotation Yrotation
                                JOINT LeftFinger01
                                {
                                    OFFSET   3.088130   0.000000   0.000000
                                    CHANNELS 3 Zrotation Xrotation Yrotation
                                    JOINT LeftFinger02
                                    {
                                        OFFSET   2.639460   0.000000   0.000000
                                        CHANNELS 3 Zrotation Xrotation Yrotation
                                        End Site
                                        {
                                            OFFSET   2.582190   0.000000   0.000000
                                        }
                                    }
                                }
                            }
                            JOINT LeftFinger1
                            {
                                OFFSET   8.364480   0.000000   3.252850
                                CHANNELS 3 Zrotation Xrotation Yrotation
                                JOINT LeftFinger11
                                {
                                    OFFSET   4.646930   0.000000   0.000000
                                    CHANNELS 3 Zrotation Xrotation Yrotation
                                    JOINT LeftFinger12
                                    {
                                        OFFSET   2.323460   0.000000   0.000000
                                        CHANNELS 3 Zrotation Xrotation Yrotation
                                        End Site
                                        {
                                            OFFSET   2.273050   0.000000   0.000000
                                        }
                                    }
                                }
                            }
                            JOINT LeftFinger2
                            {
                                OFFSET   8.364490   0.000015   1.078090
                                CHANNELS 3 Zrotation Xrotation Yrotation
                                JOINT LeftFinger21
                                {
                                    OFFSET   5.111620   0.000000   0.000000
                                    CHANNELS 3 Zrotation Xrotation Yrotation
                                    JOINT LeftFinger22
                                    {
                                        OFFSET   2.788160   0.000016   0.000000
                                        CHANNELS 3 Zrotation Xrotation Yrotation
                                        End Site
                                        {
                                            OFFSET   2.727660   0.000000   0.000000
                                        }
                                    }
                                }
                            }
                            JOINT LeftFinger3
                            {
                                OFFSET   7.899780   0.000017  -1.078090
                                CHANNELS 3 Zrotation Xrotation Yrotation
                                JOINT LeftFinger31
                                {
                                    OFFSET   4.646930   0.000000   0.000000
                                    CHANNELS 3 Zrotation Xrotation Yrotation
                                    JOINT LeftFinger32
                                    {
                                        OFFSET   2.323470   0.000000   0.000000
                                        CHANNELS 3 Zrotation Xrotation Yrotation
                                        End Site
                                        {
                                            OFFSET   2.273050   0.000000   0.000000
                                        }
                                    }
                                }
                            }
                            JOINT LeftFinger4
                            {
                                OFFSET   7.435090   0.000000  -3.252850
                                CHANNELS 3 Zrotation Xrotation Yrotation
                                JOINT LeftFinger41
                                {
                                    OFFSET   3.717550   0.000000   0.000000
                                    CHANNELS 3 Zrotation Xrotation Yrotation
                                    JOINT LeftFinger42
                                    {
                                        OFFSET   1.858770   0.000000   0.000000
                                        CHANNELS 3 Zrotation Xrotation Yrotation
                                        End Site
                                        {
                                            OFFSET   1.818440   0.000000   0.000000
                                        }
                                    }
                                }
                            }
                        }
                    }
                }
            }
            JOINT RightCollar
            {
                OFFSET  -3.911900  19.017000  -0.467063
                CHANNELS 3 Zrotation Xrotation Yrotation
                JOINT RightShoulder
                {
                    OFFSET -10.383700   0.000019   0.000000
                    CHANNELS 3 Zrotation Xrotation Yrotation
                    JOINT RightElbow
                    {
                        OFFSET -26.662100   0.001175   0.000102
                        CHANNELS 3 Zrotation Xrotation Yrotation
                        JOINT RightWrist
                        {
                            OFFSET -28.869000   0.000016  -0.000079
                            CHANNELS 3 Zrotation Xrotation Yrotation
                            JOINT RightFinger0
                            {
                                OFFSET  -2.044660  -2.323490   3.252850
                                CHANNELS 3 Zrotation Xrotation Yrotation
                                JOINT RightFinger01
                                {
                                    OFFSET  -3.088140   0.000000   0.000000
                                    CHANNELS 3 Zrotation Xrotation Yrotation
                                    JOINT RightFinger02
                                    {
                                        OFFSET  -2.639460   0.000000   0.000000
                                        CHANNELS 3 Zrotation Xrotation Yrotation
                                        End Site
                                        {
                                            OFFSET  -2.582190   0.000000   0.000000
                                        }
                                    }
                                }
                            }
                            JOINT RightFinger1
                            {
                                OFFSET  -8.364480   0.000000   3.252850
                                CHANNELS 3 Zrotation Xrotation Yrotation
                                JOINT RightFinger11
                                {
                                    OFFSET  -4.646930   0.000000   0.000000
                                    CHANNELS 3 Zrotation Xrotation Yrotation
                                    JOINT RightFinger12
                                    {
                                        OFFSET  -2.323470   0.000000   0.000000
                                        CHANNELS 3 Zrotation Xrotation Yrotation
                                        End Site
                                        {
                                            OFFSET  -2.273050   0.000000   0.000000
                                        }
                                    }
                                }
                            }
                            JOINT RightFinger2
                            {
                                OFFSET  -8.364480   0.000000   1.078090
                                CHANNELS 3 Zrotation Xrotation Yrotation
                                JOINT RightFinger21
                                {
                                    OFFSET  -5.111620   0.000000   0.000000
                                    CHANNELS 3 Zrotation Xrotation Yrotation
                                    JOINT RightFinger22
                                    {
                                        OFFSET  -2.788160   0.000000   0.000000
                                        CHANNELS 3 Zrotation Xrotation Yrotation
                                        End Site
                                        {
                                            OFFSET  -2.727660   0.000000   0.000000
                                        }
                                    }
                                }
                            }
                            JOINT RightFinger3
                            {
                                OFFSET  -7.899780   0.000000  -1.078090
                                CHANNELS 3 Zrotation Xrotation Yrotation
                                JOINT RightFinger31
                                {
                                    OFFSET  -4.646930   0.000000   0.000000
                                    CHANNELS 3 Zrotation Xrotation Yrotation
                                    JOINT RightFinger32
                                    {
                                        OFFSET  -2.323470   0.000000   0.000000
                                        CHANNELS 3 Zrotation Xrotation Yrotation
                                        End Site
                                        {
                                            OFFSET  -2.273050   0.000000   0.000000
                                        }
                                    }
                                }
                            }
                            JOINT RightFinger4
                            {
                                OFFSET  -7.435090   0.000000  -3.252850
                                CHANNELS 3 Zrotation Xrotation Yrotation
                                JOINT RightFinger41
                                {
                                    OFFSET  -3.717550   0.000000   0.000000
                                    CHANNELS 3 Zrotation Xrotation Yrotation
                                    JOINT RightFinger42
                                    {
                                        OFFSET  -1.858770   0.000000   0.000000
                                        CHANNELS 3 Zrotation Xrotation Yrotation
                                        End Site
                                        {
                                            OFFSET  -1.818440   0.000000   0.000000
                                        }
                                    }
                                }
                            }
                        }
                    }
                }
            }
        }
    }
    JOINT LeftHip
    {
        OFFSET   9.783040   0.000000   0.000000
        CHANNELS 3 Zrotation Xrotation Yrotation
        JOINT LeftKnee
        {
            OFFSET   0.000032 -41.789100  -0.002222
            CHANNELS 3 Zrotation Xrotation Yrotation
            JOINT LeftAnkle
            {
                OFFSET   0.000087 -41.133200  -0.000135
                CHANNELS 3 Zrotation Xrotation Yrotation
                JOINT LeftToe
                {
                    OFFSET   0.000000  -6.358960  14.674500
                    CHANNELS 3 Zrotation Xrotation Yrotation
                    End Site
                    {
                        OFFSET   0.000000   0.000000   3.913200
                    }
                }
            }
        }
    }
    JOINT RightHip
    {
        OFFSET  -9.783040   0.000000   0.000000
        CHANNELS 3 Zrotation Xrotation Yrotation
        JOINT RightKnee
        {
            OFFSET   0.000047 -41.789100  -0.000896
            CHANNELS 3 Zrotation Xrotation Yrotation
            JOINT RightAnkle
            {
                OFFSET  -0.000117 -41.133300  -0.000248
                CHANNELS 3 Zrotation Xrotation Yrotation
                JOINT RightToe
                {
                    OFFSET   0.000000  -6.358970  14.674500
                    CHANNELS 3 Zrotation Xrotation Yrotation
                    End Site
                    {
                        OFFSET   0.000000   0.000000   3.913200
                    }
                }
            }
        }
    }
}
MOTION
Frames: 6
Frame Time:   0.016667
  2.262200  89.412800   5.486030  -2.614350 -14.450600   4.909610   0.871034   8.841460   2.623870   1.350340  17.713200   5.204690  -2.586640   2.772770   0.125220  -4.277200   5.588580   5.764610  -7.425970  -0.630049  -1.717970 -67.510300  14.122500 -11.663800  -2.304950  -6.245200  -8.673880   9.904130  -5.221100  14.851800  38.617400  25.261000 -61.237200 -24.671700   0.006516   0.003032  -7.335850   0.000369   0.006212 -35.769500   7.918080 -10.825600 -29.880800   0.003148   0.011330 -20.916600  -0.005109   0.001318 -28.905200   3.991370  -7.185240 -43.774600   0.002630  -0.000121 -29.153900   0.000641   0.004777 -29.616000   1.551700  -2.728150 -44.480400  -0.000336  -0.001549 -29.624000  -0.000524  -0.000841 -40.644400  -1.265830   1.473930 -60.991500  -0.001640   0.003954 -40.620300  -0.007648   0.004180   0.091939  -4.094710  11.568200  39.615400  -7.634060  54.807100 -30.318300  -3.429890  52.884500 -16.231200  48.820900   8.448020 -30.934300  37.145300  70.715700  52.193700  -0.003699  -0.004044  27.627100  -0.006886   0.007589  88.997000   4.995290   0.078616  75.715200   0.006363   0.003926  56.786400  -0.007634   0.003531  85.920500  -0.002047   0.004562  85.929800  -0.002604   0.002068  64.447300  -0.000665  -0.004400  88.995700  -5.000580  -0.093055  95.650500  -0.001799  -0.000076  71.737800   0.000447   0.001747  88.984100 -10.000400  -0.178991 110.000000  -0.002635   0.000000  80.000000   0.004077   0.003169   3.549150  17.828400   3.750410   0.942360   0.164225   4.390880  -2.859950  -3.002020  -2.625280  -0.000000   0.000000   0.000000   2.144020  12.094300  -6.327640   0.816794   8.101200  -8.906640  -3.192070  -5.181480   1.299830  -0.000000   0.000000   0.000000
  2.356740  89.416200   5.505570  -2.649550 -14.378300   4.795400   0.890659   8.779420   2.672180   1.385300  17.590500   5.299580  -2.599270   2.723830   0.122959  -4.297640   5.489550   5.740740  -7.436480  -0.598118  -1.771790 -67.704300  13.724400 -11.288500  -2.369030  -6.271240  -8.952830   9.837780  -5.649350  14.790600  38.795100  25.532400 -61.468000 -24.525100   0.006521   0.003035  -7.262550   0.000363   0.006333 -35.773200   7.911250 -10.808500 -29.884400   0.002921   0.011199 -20.919100  -0.006024   0.000918 -28.884700   3.984900  -7.175740 -43.725200   0.002620  -0.000122 -29.121000   0.000668   0.005474 -29.695700   1.498940  -2.617650 -44.596500  -0.000336  -0.001657 -29.701400  -0.000545  -0.000829 -40.770000  -1.302830   1.510720 -61.180800  -0.001639   0.004025 -40.746500  -0.007610   0.004255   0.156877  -4.093900  11.532400  39.258600  -7.046190  54.675600 -30.429500  -3.628550  52.232700 -15.521700  48.478700   7.853500 -30.647900  36.576900  70.259100  52.285800  -0.004074  -0.004239  27.741000  -0.007282   0.007929  88.997000   4.994990   0.078668  76.027400   0.006881   0.003915  57.020600  -0.008259   0.003406  86.662300  -0.002047   0.004744  86.616900  -0.002097   0.001983  64.962700  -0.000822  -0.004828  88.995700  -5.000640  -0.093297  95.781400  -0.001364  -0.000297  71.836100   0.000163   0.001291  88.984100 -10.000200  -0.179103 110.000000  -0.002766  -0.000000  80.000000   0.004252   0.003317   3.566740  17.800200   3.698360   0.838308   0.198528   4.441330  -2.834790  -3.067950  -2.524290   0.000000   0.000000  -0.000000   2.067840  12.033800  -6.289030   0.819271   8.123970  -8.873410  -3.141600  -5.200190   1.350070   0.000000   0.000000  -0.000000
  2.442940  89.418200   5.526570  -2.690970 -14.289500   4.675730   0.914841   8.708730   2.706300   1.432300  17.450600   5.364820  -2.611880   2.666930   0.120490  -4.316970   5.374460   5.733270  -7.455190  -0.562112  -1.830860 -67.896200  13.317100 -10.898700  -2.438070  -6.296960  -9.238740   9.672050  -6.107240  14.685800  39.073400  25.960400 -61.815000 -24.367700   0.006525   0.003036  -7.183830   0.000355   0.006453 -35.779700   7.891400 -10.786100 -29.884900   0.002664   0.010279 -20.919400  -0.006915   0.000566 -28.843500   3.956860  -7.142540 -43.636700   0.002618  -0.000123 -29.062100   0.000688   0.006180 -29.719900   1.426590  -2.497400 -44.626800  -0.000335  -0.001736 -29.721500  -0.000572  -0.000801 -40.810400  -1.314590   1.522250 -61.241500  -0.001638   0.004098 -40.786900  -0.007571   0.004330   0.228389  -4.085220  11.493200  38.830200  -6.347680  54.532200 -30.550600  -3.838340  51.494800 -14.900300  48.067100   7.237900 -30.390600  36.003700  69.834100  52.314600  -0.004394  -0.004402  27.776700  -0.007615   0.008262  88.997000   4.994710   0.078740  76.349100   0.007401   0.003901  57.261800  -0.008861   0.003281  87.405400  -0.002046   0.004924  87.312400  -0.001615   0.001874  65.484300  -0.000989  -0.005265  88.995700  -5.000700  -0.093504  95.840500  -0.000920  -0.000558  71.880400  -0.000131   0.000832  88.984100 -10.000000  -0.179203 110.000000  -0.002887   0.000000  80.000000   0.004406   0.003453   3.583820  17.746900   3.652810   0.746002   0.255581   4.512850  -2.816720  -3.156350  -2.452920   0.000000   0.000000   0.000000   2.007570  11.959900  -6.219920   0.822002   8.139220  -8.839630  -3.091720  -5.214390   1.383870  -0.000000   0.000000   0.000000
  2.522230  89.420400   5.549550  -2.742900 -14.180800   4.570970   0.938272   8.625400   2.724490   1.480660  17.285200   5.397920  -2.609850   2.605980   0.118134  -4.304170   5.251610   5.727630  -7.473180  -0.514483  -1.891010 -68.090000  12.879900 -10.522200  -2.508700  -6.287640  -9.503780   9.517100  -6.447040  14.586600  39.245600  26.268400 -61.982500 -24.355000   0.006521   0.003009  -7.177490   0.000334   0.006554 -35.689100   7.854150 -10.777300 -29.806800   0.002385   0.005265 -20.864700  -0.007771   0.000250 -28.798000   3.889250  -7.034630 -43.553600   0.002629  -0.000123 -29.006800   0.000703   0.006886 -29.660800   1.377750  -2.415510 -44.534100  -0.000336  -0.001789 -29.659800  -0.000604  -0.000764 -40.722500  -1.288350   1.496240 -61.108800  -0.001639   0.004170 -40.698600  -0.007532   0.004407   0.312226  -4.060770  11.439500  38.626000  -5.656670  54.348400 -30.610800  -3.793520  50.855600 -14.527000  47.575700   6.765890 -30.195600  35.482900  69.496600  52.299900  -0.004685  -0.004529  27.758300  -0.007901   0.008587  88.997000   4.994430   0.078835  76.662600   0.007927   0.003879  57.496900  -0.009436   0.003158  88.099100  -0.002026   0.005114  88.010800  -0.001230   0.001740  66.008100  -0.001171  -0.005702  88.995700  -5.000730  -0.093669  95.838500  -0.000456  -0.000865  71.878900  -0.000437   0.000386  88.984100  -9.999800  -0.179290 110.000000  -0.002999  -0.000000  80.000000   0.004541   0.003575   3.582500  17.670100   3.617880   0.686202   0.303534   4.619950  -2.802960  -3.232860  -2.433690  -0.000000   0.000000   0.000000   1.976910  11.883100  -6.149080   0.820221   8.130390  -8.820790  -3.040310  -5.220260   1.412720   0.000000   0.000000  -0.000000
  2.593410  89.423200   5.574550  -2.805850 -14.061000   4.466440   0.959990   8.534070   2.729190   1.528530  17.103700   5.403510  -2.597060   2.541630   0.115139  -4.290250   5.122200   5.716730  -7.489550  -0.466659  -1.948590 -68.279500  12.474600 -10.181800  -2.549010  -6.253080  -9.650330   9.422310  -6.612880  14.527800  39.387400  26.557400 -62.106500 -24.353200   0.006516   0.002982  -7.176580   0.000312   0.006654 -35.559100   7.814330 -10.769000 -29.697400   0.002094   0.001039 -20.788100  -0.008582  -0.000000 -28.743300   3.819330  -6.924350 -43.461800   0.002659  -0.000122 -28.945600   0.000708   0.007581 -29.565700   1.342460  -2.365000 -44.390200  -0.000337  -0.001809 -29.563900  -0.000640  -0.000715 -40.582800  -1.246660   1.454860 -60.897700  -0.001641   0.004244 -40.558000  -0.007493   0.004484   0.411712  -4.028980  11.389600  38.577600  -4.990400  54.120600 -30.586300  -3.484210  50.241000 -14.317100  47.043800   6.398780 -29.919100  34.800900  69.014600  52.285200  -0.004833  -0.004589  27.739900  -0.008042   0.008904  88.996900   4.994160   0.078952  77.002400   0.008454   0.003845  57.751800  -0.009973   0.003038  88.656800  -0.001984   0.005311  88.628800  -0.000766   0.001564  66.471600  -0.001365  -0.006150  88.995700  -5.000760  -0.093791  95.824800   0.000000  -0.001227  71.868600  -0.000752  -0.000064  88.984100  -9.999580  -0.179357 110.000000  -0.003101   0.000000  80.000000   0.004651   0.003683   3.576740  17.579000   3.600760   0.639109   0.346190   4.739200  -2.785800  -3.303990  -2.430560  -0.000000   0.000000   0.000000   1.952810  11.802200  -6.079100   0.816320   8.106860  -8.813310  -2.993820  -5.221130   1.447980   0.000000   0.000000  -0.000000
  2.656990  89.428300   5.602540  -2.876550 -13.938100   4.355160   0.976861   8.437710   2.727890   1.566510  16.911900   5.397730  -2.560950   2.475840   0.110628  -4.234930   4.990450   5.665210  -7.501150  -0.428986  -2.000750 -68.467200  12.156400  -9.914340  -2.535400  -6.142940  -9.653010   9.437380  -6.593250  14.535300  39.537600  26.885200 -62.274300 -24.379700   0.006518   0.002983  -7.189790   0.000299   0.006771 -35.504900   7.783300 -10.751900 -29.650000   0.001800   0.001225 -20.754900  -0.009336  -0.000157 -28.661100   3.784670  -6.883880 -43.333900   0.002682  -0.000121 -28.860400   0.000705   0.007917 -29.491400   1.327760  -2.348650 -44.278000  -0.000337  -0.001808 -29.489100  -0.000684  -0.000657 -40.463000  -1.211080   1.419390 -60.717000  -0.001640   0.004322 -40.437600  -0.007457   0.004561   0.532923  -4.000710  11.358500  38.749700  -4.438970  53.828000 -30.373900  -2.783570  49.669400 -14.340000  46.516600   6.187200 -29.409100  33.705600  68.163700  52.463300  -0.004333  -0.002558  27.961900  -0.006977   0.009208  88.996900   4.993920   0.079095  77.418100   0.008971   0.003795  58.063600  -0.010458   0.002920  88.958800  -0.001938   0.005515  89.056400  -0.000031   0.001448  66.792300  -0.001570  -0.006624  88.962700  -5.000780  -0.093863  95.674600   0.000210  -0.001440  71.755800  -0.000912  -0.000297  88.975900  -9.999350  -0.179400 110.000000  -0.003186   0.000000  80.000000   0.004730   0.003778   3.582270  17.482600   3.602820   0.593174   0.375255   4.854600  -2.754060  -3.362680  -2.430080  -0.000000   0.000000   0.000000   1.966160  11.722700  -6.023160   0.793549   8.065890  -8.817420  -2.958120  -5.212900   1.509000   0.000000   0.000000   0.000000
